<?xml version="1.0" encoding="UTF-8"?>
<svg version="1.1" xmlns="http://www.w3.org/2000/svg" width="1352" height="1352">
<path d="M0 0 C446.16 0 892.32 0 1352 0 C1352 446.16 1352 892.32 1352 1352 C905.84 1352 459.68 1352 0 1352 C0 905.84 0 459.68 0 0 Z " fill="#000000" transform="translate(0,0)"/>
<path d="M0 0 C1.6027832 2.0715332 1.6027832 2.0715332 3.55078125 5.05078125 C3.91312363 5.59990677 4.275466 6.14903229 4.64878845 6.71479797 C5.44961656 7.92983994 6.24731118 9.14695123 7.0423584 10.36578369 C9.25500745 13.75705911 11.49079559 17.13306979 13.72265625 20.51171875 C14.20934784 21.24990845 14.69603943 21.98809814 15.19747925 22.74865723 C21.80509735 32.75877325 28.53433107 42.68722423 35.25 52.625 C37.69316727 56.24187774 40.1358518 59.85908099 42.578125 63.4765625 C43.15471359 64.33052109 43.73130219 65.18447968 44.32536316 66.0643158 C47.2137811 70.34455593 50.09376311 74.62995261 52.953125 78.9296875 C59.08651321 88.15252218 65.30276916 97.32001164 71.5 106.5 C85.7294143 127.57810104 85.7294143 127.57810104 91.82226562 136.74023438 C97.35004686 145.01455445 102.93228839 153.25252155 108.5 161.5 C122.73033706 182.57946792 122.73033706 182.57946792 128.83105469 191.75341797 C134.94950186 200.91180501 141.13159407 210.02779135 147.29492188 219.15600586 C159.62121741 237.41362144 159.62121741 237.41362144 164.96875 245.46484375 C169.04152511 251.59549765 173.17748405 257.68214265 177.3203125 263.765625 C179.26219785 266.62288448 181.20347723 269.48055462 183.14453125 272.33837891 C184.48049889 274.30247532 185.81876882 276.26500743 187.15917969 278.22607422 C189.11514384 281.08911793 191.06228567 283.95798228 193.0078125 286.828125 C193.61078156 287.70615784 194.21375061 288.58419067 194.83499146 289.48883057 C195.65747879 290.70720612 195.65747879 290.70720612 196.49658203 291.95019531 C196.98160187 292.66218079 197.4666217 293.37416626 197.96633911 294.10772705 C199 296 199 296 199 299 C196.78222656 300.63134766 196.78222656 300.63134766 193.640625 302.4140625 C193.07277283 302.74107651 192.50492065 303.06809052 191.91986084 303.40501404 C190.68436024 304.11509471 189.4459572 304.82014317 188.20507812 305.52078247 C184.87919003 307.39922604 181.5743024 309.31411852 178.265625 311.22265625 C177.58222046 311.6153923 176.89881592 312.00812836 176.19470215 312.4127655 C169.06224647 316.5187425 162.02532733 320.77657037 155 325.0625 C153.88786133 325.73941895 152.77572266 326.41633789 151.62988281 327.11376953 C149.54294334 328.38578199 147.46808311 329.67795744 145.40940857 330.995224 C142 333 142 333 138.58601379 334.3422699 C134.71401836 336.05399915 131.5698096 337.56400409 129 341 C126.54288347 348.07091121 127.35022432 356.07069333 127.51171875 363.4375 C127.51352898 365.64567317 127.50960507 367.85385784 127.50019836 370.06201172 C127.49084946 375.85671137 127.55911157 381.64796898 127.64379883 387.44195557 C127.71649787 393.36093707 127.71545653 399.27986112 127.72070312 405.19921875 C127.74181347 416.80060259 127.84495265 428.39968693 128 440 C115.04060725 441.32289588 115.04060725 441.32289588 110.61587524 438.45440674 C108.66821931 436.15256816 107.14038018 433.82656227 105.61328125 431.2265625 C105.01928024 430.31482269 104.42527924 429.40308289 103.8132782 428.4637146 C101.92854362 425.54663562 100.12081884 422.58991716 98.3125 419.625 C97.09017785 417.7026103 95.86299683 415.78330099 94.63085938 413.8671875 C92.19908128 410.07114267 89.79445511 406.25999343 87.41113281 402.43334961 C82.45588221 394.50040654 77.23301762 386.7512267 72 379 C70.85738052 377.30346807 69.71488845 375.60685033 68.57250977 373.91015625 C64.3160764 367.59215919 60.05170681 361.27952896 55.78710938 354.96704102 C48.57576677 344.29114364 41.39048513 333.59898319 34.25222778 322.87406921 C27.71154992 313.0534326 21.10581401 303.27688787 14.5 293.5 C6.71884862 281.98356245 -1.04053677 270.45381571 -8.74145508 258.88354492 C-15.28424245 249.05975154 -21.8920604 239.28003383 -28.5 229.5 C-41.00265623 210.9955329 -41.00265623 210.9955329 -46.1796875 203.24609375 C-46.70748306 202.4588945 -47.23527863 201.67169525 -47.77906799 200.86064148 C-48.88362718 199.19455825 -49.97248015 197.51797635 -51.04698181 195.83235168 C-54.2802896 190.81815187 -57.68237777 186.10916142 -61.50004864 181.53203678 C-82.64680404 155.98101024 -84.56176911 133.28124796 -83.52227783 100.84222412 C-83.40784643 96.07787385 -83.44151735 91.3189421 -83.47546291 86.55369282 C-83.49470327 81.92742411 -83.43848514 77.30454811 -83.35768318 72.67903709 C-83.32527609 70.49009333 -83.31216305 68.30076835 -83.31951714 66.11159706 C-83.29632826 49.72038789 -83.29632826 49.72038789 -79.50887489 45.23351097 C-75.96483612 42.29460596 -72.08301904 40.42187315 -67.81907654 38.74991608 C-65.189621 37.66592047 -62.83427581 36.20150866 -60.42578125 34.69921875 C-58.7215575 33.69496736 -57.01712916 32.69106309 -55.3125 31.6875 C-48.19061412 27.48741346 -41.08523489 23.26160929 -34 19 C-30.66743714 16.99871414 -27.33387791 14.99909426 -24 13 C-23.01741211 12.41025391 -22.03482422 11.82050781 -21.02246094 11.21289062 C-17.97610672 9.38719429 -14.92602141 7.56788368 -11.875 5.75 C-10.91980469 5.17636719 -9.96460938 4.60273438 -8.98046875 4.01171875 C-7.65595703 3.22474609 -7.65595703 3.22474609 -6.3046875 2.421875 C-5.52077637 1.95362305 -4.73686523 1.48537109 -3.92919922 1.00292969 C-2 0 -2 0 0 0 Z " fill="#FEFEFE" transform="translate(616,456)"/>
<path d="M0 0 C1.38096619 1.55601501 1.38096619 1.55601501 2.81225586 3.76928711 C3.35389877 4.59532944 3.89554169 5.42137177 4.45359802 6.27244568 C5.03480911 7.18156204 5.6160202 8.09067841 6.21484375 9.02734375 C7.13131432 10.43180504 7.13131432 10.43180504 8.06629944 11.86463928 C10.0332936 14.88260618 11.98597111 17.90951442 13.9375 20.9375 C16.48351007 24.86639283 19.03538678 28.79143849 21.58984375 32.71484375 C22.22212891 33.68752701 22.85441406 34.66021027 23.50585938 35.66236877 C27.69071513 42.07363778 32.02124653 48.35455115 36.47663879 54.57965088 C43.13658453 63.92818361 49.34705177 73.58050984 55.625 83.1875 C65.06648147 97.74450295 65.06648147 97.74450295 74.984375 111.9765625 C81.88734173 121.46993716 88.20384432 131.36551606 94.625 141.1875 C103.53507357 155.02607797 103.53507357 155.02607797 112.9921875 168.48828125 C120.29170168 178.30133502 126.75499972 188.74378126 133.44580078 198.97558594 C141.47836129 211.40615971 141.47836129 211.40615971 150 223.5 C157.2976716 233.30844608 163.75763303 243.7478082 170.44580078 253.97558594 C180.40840032 269.20586293 180.40840032 269.20586293 191 284 C192.55035297 286.14893845 194.06201889 288.31534648 195.5625 290.5 C196.24441406 291.4796875 196.92632813 292.459375 197.62890625 293.46875 C198.08136719 294.3040625 198.53382813 295.139375 199 296 C197.6796353 299.9610941 196.13539314 300.36517686 192.54296875 302.4140625 C191.97648621 302.74112183 191.41000366 303.06818115 190.82635498 303.40515137 C189.59624138 304.11431238 188.36380549 304.81945677 187.12936401 305.52105713 C183.8205506 307.40210593 180.52861659 309.31233599 177.234375 311.21875 C176.55426865 311.6112796 175.87416229 312.0038092 175.17344666 312.40823364 C166.88099318 317.20453665 158.71381006 322.20406439 150.54174805 327.20166016 C149.46449463 327.85956543 148.38724121 328.5174707 147.27734375 329.1953125 C145.82536584 330.08527929 144.37497282 330.97906514 142.95498657 331.91923523 C141 333 141 333 137.98617554 334.00227356 C134.09425242 335.56964773 131.82885687 336.87105141 129 340 C126.66970463 347.13162675 127.46739286 355.1628613 127.609375 362.55859375 C127.60931864 364.79062003 127.60397412 367.02265191 127.59356689 369.25465393 C127.58040086 375.11650983 127.63890114 380.97552944 127.71246338 386.83685303 C127.77486689 392.8228208 127.76931882 398.80868599 127.76953125 404.79492188 C127.77994202 416.53084102 127.86608254 428.26488569 128 440 C114.77169452 440.89222542 114.77169452 440.89222542 110.96551514 438.97543335 C109.52179843 437.42817426 108.54221622 435.92849537 107.5234375 434.07421875 C107.11303726 433.43653564 106.70263702 432.79885254 106.27980042 432.1418457 C104.92753228 430.01785472 103.65437872 427.85603319 102.375 425.6875 C101.42318688 424.16734055 100.46542387 422.65089268 99.50219727 421.13793945 C97.42327939 417.86482374 95.36945309 414.57762036 93.32763672 411.28125 C88.06084206 402.84681544 82.41152796 394.66505254 76.81500244 386.44766235 C73.83117555 382.06106531 70.8660578 377.66191992 67.90234375 373.26171875 C67.33165161 372.41494064 66.76095947 371.56816254 66.17297363 370.69572449 C62.1083665 364.65978577 58.06744154 358.6083481 54.03515625 352.55078125 C46.90265042 341.83611632 39.70606362 331.16528301 32.5 320.5 C24.71579907 308.97904898 16.9534239 297.44475057 9.2494812 285.86994934 C3.35960032 277.02647355 -2.58391672 268.2195217 -8.53222656 259.4152832 C-17.30399781 246.43078398 -26.06764265 233.44195473 -34.73461914 220.38720703 C-39.13448879 213.77134464 -43.57198601 207.18154068 -48.01953125 200.59765625 C-48.65519012 199.65642914 -49.290849 198.71520203 -49.94577026 197.74545288 C-53.14055749 193.01557242 -56.33735193 188.28706632 -59.53710938 183.56054688 C-60.73963778 181.7812868 -61.94211375 180.00199128 -63.14453125 178.22265625 C-63.93462334 177.05779442 -63.93462334 177.05779442 -64.74067688 175.86940002 C-65.84542135 174.23327653 -66.93259265 172.5851961 -68.00508118 170.92774963 C-69.54754181 168.66402918 -71.12786853 166.57447394 -72.83805847 164.44419861 C-82.24861024 152.1958561 -82.46889408 141.41796045 -82.07421875 126.37109375 C-82.05365359 124.04130257 -82.03801863 121.7114632 -82.02705383 119.38160706 C-81.98543565 113.30592045 -81.87772693 107.23321529 -81.75531006 101.15869141 C-81.64194486 94.93758459 -81.59236688 88.71598685 -81.53710938 82.49414062 C-81.41981408 70.32813078 -81.23255456 58.16431511 -81 46 C-80.40224416 45.65951818 -79.80448832 45.31903637 -79.18861866 44.96823692 C-76.44467616 43.40464483 -73.70145992 41.83978274 -70.95825195 40.27490234 C-69.54800121 39.47166786 -69.54800121 39.47166786 -68.10926056 38.65220642 C-60.72093346 34.43568421 -53.43349335 30.08213293 -46.1875 25.625 C-34.32927576 18.36783756 -22.36618815 11.30882554 -10.32641602 4.35595703 C-8.65869857 3.38392401 -7.0156086 2.36915698 -5.39038086 1.32763672 C-3 0 -3 0 0 0 Z " fill="#FEFEFE" transform="translate(448,545)"/>
<path d="M0 0 C1.27615356 1.57762146 1.27615356 1.57762146 2.73486328 3.81811523 C3.2833493 4.65182144 3.83183533 5.48552765 4.39694214 6.34449768 C4.99040436 7.26077438 5.58386658 8.17705109 6.1953125 9.12109375 C7.46972436 11.06146436 8.74481075 13.00139207 10.02050781 14.94091797 C11.00815125 16.44824493 11.00815125 16.44824493 12.01574707 17.98602295 C15.1157492 22.69476504 18.27167397 27.36520547 21.4296875 32.03515625 C22.66932077 33.87171109 23.90890398 35.70829971 25.1484375 37.54492188 C26.39057867 39.38414588 27.63276641 41.22333842 28.875 43.0625 C42.7603525 63.62473771 42.7603525 63.62473771 46.9765625 69.96484375 C53.10209115 79.17598708 59.31065139 88.33168762 65.5 97.5 C79.7294143 118.57810104 79.7294143 118.57810104 85.82226562 127.74023438 C91.35004686 136.01455445 96.93228839 144.25252155 102.5 152.5 C116.7294143 173.57810104 116.7294143 173.57810104 122.82226562 182.74023438 C128.35004686 191.01455445 133.93228839 199.25252155 139.5 207.5 C153.7294143 228.57810104 153.7294143 228.57810104 159.82226562 237.74023438 C165.35004686 246.01455445 170.93228839 254.25252155 176.5 262.5 C180.81494348 268.89174688 185.1279977 275.2847484 189.43603516 281.68115234 C190.83802805 283.75984865 192.2443448 285.83552626 193.65234375 287.91015625 C194.37550781 288.98136719 195.09867188 290.05257813 195.84375 291.15625 C196.44380859 292.04119141 197.04386719 292.92613281 197.66210938 293.83789062 C199 296 199 296 200 299 C198.90220215 299.63893188 198.90220215 299.63893188 197.78222656 300.29077148 C178.17341491 311.71502241 158.59625941 323.20991215 139.37109375 335.27294922 C138.77570801 335.64471786 138.18032227 336.01648651 137.56689453 336.39952087 C135.90320635 337.43939834 134.24252917 338.48408854 132.58203125 339.52905273 C130 341 130 341 128 341 C128 373.67 128 406.34 128 440 C113 440 113 440 109.0546875 436.26171875 C107.94274335 434.43431777 106.88699886 432.57208814 105.875 430.6875 C104.9038955 429.07112047 103.93229547 427.45501325 102.95144653 425.8445282 C102.2182919 424.63613148 101.49187738 423.42362555 100.77145386 422.20759583 C95.80198776 413.85177292 90.24717532 405.8813532 84.77337646 397.85153198 C81.58687053 393.17002274 78.42263847 388.47352479 75.2578125 383.77734375 C74.32426437 382.39298882 74.32426437 382.39298882 73.37185669 380.98066711 C67.80105444 372.71546621 62.2692275 364.42469475 56.75 356.125 C46.59366351 340.85514027 36.33023633 325.65890273 26.05281067 310.47036743 C19.92367286 301.41141868 13.80416247 292.34597917 7.68728638 283.27874756 C6.46509952 281.46726184 5.24267842 279.65593414 4.01998901 277.8447876 C-2.33243844 268.43504035 -8.66593959 259.01338563 -14.95703125 249.5625 C-22.09214519 238.84393069 -29.29130771 228.16917356 -36.5 217.5 C-49.58476911 198.13398089 -49.58476911 198.13398089 -54.49609375 190.75390625 C-55.30901886 189.53383456 -55.30901886 189.53383456 -56.1383667 188.28911495 C-57.2894838 186.5547102 -58.43488515 184.81648457 -59.57199097 183.07286167 C-62.51989213 178.5821269 -65.54519071 174.23988962 -68.88549805 170.03123474 C-79.58537125 156.22097991 -82.37677144 145.45327685 -82.34375 128.19140625 C-82.37938774 125.8821926 -82.41790087 123.57302176 -82.45910645 121.26390076 C-82.52570851 116.46674793 -82.53446043 111.67370111 -82.50488281 106.8762207 C-82.48114799 101.98169112 -82.55148593 97.10318318 -82.70996094 92.21118164 C-84.01168717 51.62807267 -84.01168717 51.62807267 -77.58114624 43.37182617 C-72.23688869 37.86048868 -65.34334226 35.22537182 -58.12530518 33.05342102 C-53.22506507 31.40173722 -49.12075394 28.68110536 -44.8125 25.875 C-43.20936232 24.90413154 -41.60301201 23.93852948 -39.9921875 22.98046875 C-38.7851416 22.25802979 -38.7851416 22.25802979 -37.55371094 21.52099609 C-31.92360266 18.16769069 -26.27056136 14.85295202 -20.62133789 11.53198242 C-14.9312696 8.17590584 -9.32696528 4.73715591 -3.828125 1.07421875 C-2 0 -2 0 0 0 Z " fill="#FEFEFE" transform="translate(785,367)"/>
</svg>
